<svg xmlns="http://www.w3.org/2000/svg" width="162" height="20" viewBox="0 0 162 20" xmlns:xlink="http://www.w3.org/1999/xlink">
  <defs>
    <linearGradient id="b" x1="50%" x2="50%" y1="0%" y2="100%">
      <stop stop-color="#5F5F5F" offset="0%"/>
      <stop stop-color="#4C4C4C" offset="100%"/>
    </linearGradient>
    <rect id="a" width="162" height="19.5" rx="3"/>
    <text id="e" fill="#FFF" font-family="Verdana-Bold, Verdana" font-size="9.5" font-weight="bold">
      <tspan x="19" y="13">supported by</tspan>
    </text>
    <filter id="d" width="200%" height="200%" x="-50%" y="-50%" filterUnits="objectBoundingBox">
      <feOffset dy="1" in="SourceAlpha" result="shadowOffsetOuter1"/>
      <feColorMatrix values="0 0 0 0 0 0 0 0 0 0 0 0 0 0 0 0 0 0 0.5 0" in="shadowOffsetOuter1"/>
    </filter>
    <linearGradient id="f" x1="56.8%" x2="56.8%" y1="0%" y2="100%">
      <stop stop-color="#FF7E38" offset="0%"/>
      <stop stop-color="#FF315F" offset="100%"/>
    </linearGradient>
    <text id="h" fill="#FFF" font-family="Verdana-Bold, Verdana" font-size="10" font-weight="bold">
      <tspan x="102" y="14">Thinkmill</tspan>
    </text>
    <filter id="g" width="200%" height="200%" x="-50%" y="-50%" filterUnits="objectBoundingBox">
      <feOffset dy="1" in="SourceAlpha" result="shadowOffsetOuter1"/>
      <feColorMatrix values="0 0 0 0 0 0 0 0 0 0 0 0 0 0 0 0 0 0 0.5 0" in="shadowOffsetOuter1"/>
    </filter>
  </defs>
  <g fill="none" fill-rule="evenodd">
    <mask id="c" fill="#fff">
      <use xlink:href="#a"/>
    </mask>
    <use fill="url(#b)" xlink:href="#a"/>
    <g fill="#FFF" mask="url(#c)">
      <use filter="url(#d)" xlink:href="#e"/>
      <use xlink:href="#e"/>
    </g>
    <path fill="url(#f)" d="M96 0h66.2v19.5H96z" mask="url(#c)"/>
    <g fill="#FFF" mask="url(#c)">
      <use filter="url(#g)" xlink:href="#h"/>
      <use xlink:href="#h"/>
    </g>
    <path fill="#FFF" d="M8 16.2V16l.8-5.8H6.2L6 9.8l1.5-5c0-.2 0-.3.2-.3h4.5s.3.2.2.3l-1 2.2H14c.2 0 .3.2.2.4l-6 8.6v.2z" mask="url(#c)"/>
  </g>
</svg>
