<svg xmlns="http://www.w3.org/2000/svg" viewBox="0 0 586 586" fill="none">
  <g fill-rule="evenodd" clip-path="url(#a)" clip-rule="evenodd">
    <title>Thinkmill</title>
    <path
      fill="#ED0000"
      d="M293 586a293 293 0 1 0 0-586 293 293 0 0 0 0 586Z"
    />
    <path
      fill="#ED0000"
      d="M293 586a293 293 0 1 0 0-586 293 293 0 0 0 0 586Z"
    />
    <path
      fill="#fff"
      d="M185.9 335.9c0 16.4 5.5 23 19.9 23 3.7 0 7.8-.5 10-1.4v25.6a73 73 0 0 1-18.4 2.6c-30.8 0-44.3-13-44.3-44.9v-78h-24.5v-25.1H153v-36.6h32.8v36.6h28.5v25H186V336Zm174.5-75.2a51.7 51.7 0 0 1 47-26.5c31 0 50 20.2 50 59.7V384h-32.7v-87c0-25.9-10.1-36.3-26.5-36.3-19.3 0-30.9 16.5-30.9 44.4V384h-32.8v-90.4c0-20.8-9.2-32.9-26.2-32.9-19.6 0-30.8 16.7-30.8 45V384h-32.8V237.7H276v17.6h.6a47.3 47.3 0 0 1 40.6-21c20.2 0 35.7 9.2 43.2 26.4Z"
    />
  </g>
  <defs>
    <clipPath id="a"><path fill="#fff" d="M0 0h586v586H0z" /></clipPath>
  </defs>
</svg>
