<svg width="2041" height="780" xmlns="http://www.w3.org/2000/svg">
  <g fill="#FF3838" fill-rule="evenodd">
    <path d="M380 730C192.223185 730 40 577.776815 40 390S192.223185 50 380 50s340 152.223185 340 340-152.223185 340-340 340zm0-47c161.819432 0 293-131.180568 293-293S541.819432 97 380 97 87 228.180568 87 390s131.180568 293 293 293zm-87.224-227.056c3.744 0 7.776-.576 10.08-1.44v25.632c-4.896 1.44-12.384 2.592-18.432 2.592-30.816 0-44.352-12.96-44.352-44.928v-78.048h-24.48v-25.056h24.48V298.12h32.832v36.576h28.512v25.056h-28.512v73.152c0 16.416 5.472 23.04 19.872 23.04zm201.6-124.704c31.104 0 50.112 20.16 50.112 59.616V481h-32.832v-86.976c0-25.92-10.08-36.288-26.496-36.288-19.296 0-30.816 16.416-30.816 44.352V481h-32.832v-90.432c0-20.736-9.216-32.832-26.208-32.832-19.584 0-30.816 16.704-30.816 44.928V481h-32.832V334.696h31.392v17.568h.576c10.368-14.112 23.328-21.024 40.608-21.024 20.16 0 35.712 9.216 43.2 26.496 10.656-16.704 24.768-26.496 46.944-26.496zM1024.012 320.704V292H862v28.704h64.584v167.808h32.844V320.704h64.584zm51.57456 44.16V292h-31.464v196.512h31.464V410.68c0-26.772 14.076-40.296 32.016-40.296 17.664 0 28.428 9.936 28.428 35.052v83.076h31.464v-85.836c0-38.364-19.32-57.684-51.06-57.684-15.732 0-30.36 6.348-40.296 19.872h-.552zm159.49057-42.78V292h-31.464v30.084h31.464zm0 166.428V348.304h-31.464v140.208h31.464zm109.81056-143.52c-18.492 0-33.12 8.832-41.952 21.528h-.552v-18.216h-29.808v140.208h31.464V410.68c0-26.772 14.076-40.296 32.016-40.296 17.664 0 28.428 9.936 28.428 35.052v83.076h31.464v-85.836c0-38.364-19.32-57.684-51.06-57.684zm213.58657 143.52l-64.584-76.176 57.96-64.032h-36.708l-51.06 57.408h-.552V292h-31.464v196.512h31.464v-67.896h.552l54.648 67.896h39.744zm168.04656-143.52c-21.252 0-34.776 9.384-44.988 25.392-7.176-16.56-22.08-25.392-41.4-25.392-16.56 0-28.98 6.624-38.916 20.148h-.552v-16.836h-30.084v140.208h31.464V413.44c0-27.048 10.764-43.056 29.532-43.056 16.284 0 25.116 11.592 25.116 31.464v86.664h31.464v-75.624c0-26.772 11.04-42.504 29.532-42.504 15.732 0 25.392 9.936 25.392 34.776v83.352h31.464v-86.388c0-37.812-18.216-57.132-48.024-57.132zm115.60657-22.908V292h-31.464v30.084h31.464zm0 166.428V348.304h-31.464v140.208h31.464zm68.96256 0V292h-31.464v196.512h31.464zm68.96257 0V292h-31.464v196.512h31.464z"/>
  </g>
</svg>
