<svg xmlns="http://www.w3.org/2000/svg" fill="none" viewBox="0 0 1947 649">
<title>Thinkmill</title>
  <path fill="#000" fill-rule="evenodd" d="M990.01 255.7V227H828v28.7h64.58v167.81h32.85v-167.8H990Zm51.58 44.16V227h-31.47v196.51h31.47v-77.83c0-26.77 14.07-40.3 32.01-40.3 17.67 0 28.43 9.94 28.43 35.06v83.07h31.46v-85.83c0-38.37-19.32-57.69-51.06-57.69-15.73 0-30.36 6.35-40.29 19.87h-.55Zm159.49-42.78V227h-31.47v30.08h31.47Zm0 166.43v-140.2h-31.47v140.2h31.47ZM1310.89 280c-18.49 0-33.12 8.83-41.95 21.53h-.56V283.3h-29.8v140.21h31.46v-77.83c0-26.77 14.08-40.3 32.02-40.3 17.66 0 28.42 9.94 28.42 35.06v83.07h31.47v-85.83c0-38.37-19.32-57.69-51.06-57.69Zm213.58 143.52-64.58-76.17 57.96-64.04h-36.71l-51.06 57.41h-.55V227h-31.46v196.51h31.46v-67.9h.55l54.65 67.9h39.74ZM1692.52 280c-21.25 0-34.78 9.39-44.99 25.4-7.17-16.57-22.08-25.4-41.4-25.4-16.56 0-28.98 6.63-38.91 20.15h-.56V283.3h-30.08v140.21h31.46v-75.07c0-27.05 10.77-43.06 29.54-43.06 16.28 0 25.11 11.6 25.11 31.47v86.66h31.47V347.9c0-26.77 11.04-42.5 29.53-42.5 15.73 0 25.39 9.93 25.39 34.77v83.35h31.46v-86.39c0-37.8-18.21-57.13-48.02-57.13Zm115.61-22.9V227h-31.47v30.08h31.47Zm0 166.42v-140.2h-31.47v140.2h31.47Zm68.96 0V227h-31.46v196.51h31.46Zm68.96 0V227h-31.46v196.51h31.46Z" clip-rule="evenodd"/>
  <path fill="#ed0000" fill-rule="evenodd" d="M324.5 648.96c179.2 0 324.46-145.27 324.46-324.46C648.96 145.3 503.69.05 324.5.05 145.3.05.05 145.3.05 324.5c0 179.2 145.26 324.46 324.45 324.46Z" clip-rule="evenodd"/>
  <path fill="#fff" fill-rule="evenodd" d="M205.9 372c0 18.19 6.07 25.52 22.01 25.52 4.15 0 8.61-.63 11.16-1.6v28.4a80.85 80.85 0 0 1-20.4 2.86c-34.13 0-49.12-14.35-49.12-49.75V291h-27.1v-27.74h27.1v-40.5h36.36v40.5h31.57V291h-31.57v81Zm193.27-83.23c11.8-18.5 27.43-29.34 51.98-29.34 34.45 0 55.5 22.33 55.5 66.02v99.82h-36.36v-96.31c0-28.7-11.16-40.19-29.34-40.19-21.37 0-34.13 18.18-34.13 49.12v87.38h-36.35V325.13c0-22.96-10.2-36.36-29.02-36.36-21.69 0-34.13 18.5-34.13 49.75v86.75h-36.35V263.26h34.76v19.45h.64c11.48-15.63 25.83-23.28 44.96-23.28 22.33 0 39.55 10.2 47.84 29.34Z" clip-rule="evenodd"/>
</svg>
